# AST/ASF file generated using VICON BodyLanguage
# -----------------------------------------------
:version 1.10
:name VICON
:units
  mass 1.0
  length 0.45
  angle deg
:documentation
   .ast/.asf automatically generated from VICON data using
   VICON BodyBuilder and BodyLanguage model FoxedUp or BRILLIANT.MOD
:root
   order TX TY TZ RX RY RZ
   axis XYZ
   position 0 0 0  
   orientation 0 0 0 
:bonedata
  begin
     id 1 
     name lhipjoint
     direction 0.575328 -0.747301 0.332475 
     length 2.40933 
     axis 0 0 0  XYZ
  end
  begin
     id 2 
     name lfemur
     direction 0.34202 -0.939693 0  
     length 7.31453  
     axis 0 0 20  XYZ
    dof rx ry rz
    limits (-160.0 20.0)
           (-70.0 70.0)
           (-60.0 70.0)
  end
  begin
     id 3 
     name ltibia
     direction 0.34202 -0.939693 0   
     length 7.82185   
     axis 0 0 20   XYZ
    dof rx
    limits (-10.0 170.0)
  end
  begin
     id 4 
     name lfoot
     direction 0.0795993 -0.218697 0.972541   
     length 2.19173   
     axis -90 7.62852e-016 20   XYZ
    dof rx rz
    limits (-45.0 90.0)
           (-70.0 20.0)
  end
  begin
     id 5 
     name ltoes
     direction 1.53537e-011 -4.21894e-011 1   
     length 1.10023   
     axis -90 7.62852e-016 20   XYZ
    dof rx
    limits (-90.0 20.0)
  end
  begin
     id 6 
     name rhipjoint
     direction -0.513884 -0.783789 0.348708   
     length 2.29716  
     axis 0 0 0  XYZ 
  end
  begin
     id 7 
     name rfemur
     direction -0.34202 -0.939693 0   
     length 7.59573   
     axis 0 0 -20   XYZ
    dof rx ry rz
    limits (-160.0 20.0)
           (-70.0 70.0)
           (-70.0 60.0)
  end
  begin
     id 8 
     name rtibia
     direction -0.34202 -0.939693 0   
     length 7.66402   
     axis 0 0 -20   XYZ
    dof rx
    limits (-10.0 170.0)
 end
 begin
     id 9 
     name rfoot
     direction -0.137793 -0.378584 0.915253   
     length 2.27056  
     axis -90 -7.62852e-016 -20   XYZ
    dof rx rz
    limits (-45.0 90.0)
           (-20.0 70.0)
  end
  begin
     id 10 
     name rtoes
     direction -1.53493e-011 -4.22159e-011 1   
     length 1.11766   
     axis -90 -7.62852e-016 -20   XYZ
    dof rx
    limits (-90.0 20.0)
  end
  begin
     id 11 
     name lowerback
     direction -0.00732775 0.998356 -0.05685   
     length 2.16513   
     axis 0 0 0   XYZ
    dof rx ry rz
    limits (-20.0 45.0)
           (-30.0 30.0)
           (-30.0 30.0)
  end
  begin
     id 12 
     name upperback
     direction 0.0218081 0.999627 -0.0164647   
     length 2.16755   
     axis 0 0 0   XYZ
    dof rx ry rz
    limits (-20.0 45.0)
           (-30.0 30.0)
           (-30.0 30.0)
  end
  begin
     id 13 
     name thorax
     direction 0.02365 0.999661 0.0108914   
     length 2.16932   
     axis 0 0 0   XYZ
    dof rx ry rz
    limits (-20.0 45.0)
           (-30.0 30.0)
           (-30.0 30.0)
  end
  begin
     id 14 
     name lowerneck
     direction -0.0523929 0.978385 0.200044   
     length 1.63877   
     axis 0 0 0   XYZ
    dof rx ry rz
    limits (-20.0 45.0)
           (-30.0 30.0)
           (-30.0 30.0)
  end
  begin
     id 15 
     name upperneck
     direction 0.0448674 0.981321 -0.187074   
     length 1.69014   
     axis 0 0 0   XYZ
    dof rx ry rz
    limits (-20.0 45.0)
           (-30.0 30.0)
           (-30.0 30.0)
  end
  begin
     id 16
     name head
     direction 0.0199089 0.996118 -0.0857429  
     length 1.70094  
     axis 0 0 0   XYZ
    dof rx ry rz
    limits (-20.0 45.0)
           (-30.0 30.0)
           (-30.0 30.0)
  end
  begin
     id 17 
     name lclavicle
     direction 0.940366 0.30191 -0.156722  
     length 3.37521  
     axis 0 0 0   XYZ
    dof ry rz
    limits (-20.0 10.0)
           (0.0 20.0)
  end
  begin
     id 18 
     name lhumerus
     direction 1 -4.4897e-011 -1.7911e-027   
     length 5.25287   
     axis 180 -30 -90   XYZ
    dof rx ry rz
    limits (-60.0 90.0)
           (-90.0 90.0)
           (-90.0 90.0)
  end
  begin
     id 19
     name lradius
     direction 1 -4.48951e-011 1.04424e-027   
     length 3.51014   
     axis 180 -30 -90   XYZ
    dof rx
    limits (-10.0 170.0)
  end
  begin
     id 20
     name lwrist
     direction 1 -4.48997e-011 -9.5942e-028   
     length 1.75507   
     axis 8.48502e-016 90 90   XYZ
    dof ry
    limits (-180.0 0.0)
 end
  begin
     id 21 
     name lhand
     direction 1 -4.48831e-011 -1.90777e-027   
     length 0.706179   
     axis 1.22306e-015 90 90   XYZ
    dof rx rz
    limits (-90.0 90.0)
           (-45.0 45.0)
  end
  begin
     id 22 
     name lfingers
     direction 1 -4.49108e-011 -3.85244e-027   
     length 0.569339   
     axis 2.44611e-015 90 90   XYZ
    dof rx
    limits (0.0 90.0)
  end
  begin
     id 23
     name lthumb
     direction 0.707107 -6.34953e-011 0.707107   
     length 0.817461   
     axis -90 45 -1.62303e-014   XYZ
    dof rx rz
    limits (-45.0 45.0)
           (-45.0 45.0)
  end
  begin
     id 24 
     name rclavicle
     direction -0.905329 0.382405 -0.184787   
     length 3.30787  
     axis 0 0 0   XYZ 
    dof ry rz
    limits (-10.0 20.0)
           (-20.0 0.0)
  end
  begin
     id 25 
     name rhumerus
     direction -1 -4.48953e-011 -9.15316e-029  
     length 5.28721   
     axis 180 30 90   XYZ
    dof rx ry rz
    limits (-90.0 60.0)
           (-90.0 90.0)
           (-90.0 90.0)
  end
  begin
     id 26 
     name rradius
     direction -1 -4.48987e-011 9.37824e-028   
     length 3.50544   
     axis 180 30 90   XYZ
    dof rx
    limits (-10.0 170.0)
  end
  begin
     id 27 
     name rwrist
     direction -1 -4.48967e-011 -9.58414e-028   
     length 1.75272   
     axis 8.48502e-016 -90 -90   XYZ
    dof ry
    limits (-180.0 0.0)
  end
  begin
     id 28
     name rhand
     direction -1 -4.48904e-011 -1.91266e-027   
     length 0.884996   
     axis 1.22306e-015 -90 -90   XYZ
    dof rx rz
    limits (-90.0 90.0)
           (-45.0 45.0)
  end
  begin
     id 29
     name rfingers
     direction -1 -4.4909e-011 -3.85015e-027   
     length 0.713507   
     axis 2.44611e-015 -90 -90   XYZ
    dof rx
    limits (0.0 90.0)
  end
  begin
     id 30
     name rthumb
     direction -0.707107 -6.34853e-011 0.707107   
     length 1.02446   
     axis -90 -45 1.62303e-014   XYZ
    dof rx rz
    limits (-45.0 45.0)
           (-45.0 45.0)
  end
:hierarchy
  begin
    root lhipjoint rhipjoint lowerback
    lhipjoint lfemur
    lfemur ltibia
    ltibia lfoot
    lfoot ltoes
    rhipjoint rfemur
    rfemur rtibia
    rtibia rfoot
    rfoot rtoes
    lowerback upperback
    upperback thorax
    thorax lowerneck lclavicle rclavicle
    lowerneck upperneck
    upperneck head
    lclavicle lhumerus
    lhumerus lradius
    lradius lwrist
    lwrist lhand lthumb
    lhand lfingers
    rclavicle rhumerus
    rhumerus rradius
    rradius rwrist
    rwrist rhand rthumb
    rhand rfingers
  end

#!OML:ASF F:\twosubjects\two\Thursday\Session 1\justin.ASF
:FULLY-SPECIFIED
:DEGREES
33
root 7.84879 15.4949 -18.6484 -2.43176 -78.6714 2.47714
lowerback 7.93354 1.37037 -1.05689
upperback -4.11619 1.778 1.00081
thorax -8.88721 0.953157 1.38101
lowerneck -21.7675 4.46201 -3.04485
upperneck 27.4663 4.49774 8.88305
head 12.4091 2.81766 4.65896
rclavicle 1.14301e-014 1.31198e-014
rhumerus 41.5104 -46.1096 -7.31005
rradius 76.6052
rwrist -20.7354
rhand -22.3538 12.7799
rfingers 7.12502
rthumb 4.06714 -17.161
lclavicle 1.14301e-014 1.31198e-014
lhumerus 59.3986 44.8251 19.9315
lradius 72.4757
lwrist -3.90811
lhand -9.39094 44.6286
lfingers 7.12502
lthumb 16.5701 73.9412
rfemur -11.1974 -1.11043 -3.83092
rtibia 55.4893
rfoot -21.6763 -7.69779
rtoes -37.6909
lfemur -12.997 -0.155335 9.17559
ltibia 45.2847
lfoot -18.5172 -13.3842
ltoes -35.0253
34
root 7.90004 15.2583 -18.6601 -2.64668 -78.6476 2.04144
lowerback 9.16576 1.64608 -0.969527
upperback -4.05992 2.13793 0.786054
thorax -9.55184 1.11694 1.01503
lowerneck -21.5059 4.17614 -3.13446
upperneck 27.9197 3.89242 9.43562
head 12.5701 2.59843 4.81107
rclavicle -3.95085e-015 3.77691e-015
rhumerus 40.5613 -45.8765 -5.41406
rradius 79.2851
rwrist -19.0493
rhand -23.2995 14.9968
rfingers 7.12502
rthumb 3.15388 -14.9597
lclavicle -3.95085e-015 3.77691e-015
lhumerus 61.2464 44.3207 20.4558
lradius 75.2813
lwrist -5.75231
lhand -11.5477 43.6873
lfingers 7.12502
lthumb 14.4928 73.1611
rfemur -11.3011 -1.32244 -4.12705
rtibia 57.2703
rfoot -24.3851 -7.90423
rtoes -37.3432
lfemur -13.6077 0.633437 9.80439
ltibia 47.5311
lfoot -20.5597 -14.0975
ltoes -34.1086
35
root 7.95195 15.0468 -18.6781 -2.5824 -78.5991 1.24127
lowerback 10.3622 1.15527 -1.51675
upperback -3.89386 1.48212 1.74707
thorax -10.1041 0.872579 2.45325
lowerneck -21.7104 4.60442 -4.5544
upperneck 28.3782 4.95525 9.68534
head 12.6362 2.95053 5.34574
rclavicle -2.73329e-014 1.39149e-014
rhumerus 44.5306 -45.3923 -7.15039
rradius 81.8895
rwrist -17.0457
rhand -23.8476 17.9359
rfingers 7.12502
rthumb 2.62457 -12.0277
lclavicle -2.73329e-014 1.39149e-014
lhumerus 58.5603 44.9301 18.2718
lradius 78.2956
lwrist -7.73971
lhand -13.5843 42.6752
lfingers 7.12502
lthumb 12.5299 72.2795
rfemur -11.441 -1.44527 -4.28477
rtibia 59.1079
rfoot -26.6019 -7.91871
rtoes -36.9986
lfemur -14.2563 1.44666 10.4327
ltibia 49.6949
lfoot -23.0961 -13.4654
ltoes -37.0833
36
root 8.00609 14.847 -18.6976 -2.80991 -78.5721 0.75482
lowerback 11.7198 1.27163 -1.81348
upperback -3.64953 1.60174 1.93889
thorax -10.6615 0.960964 2.79077
lowerneck -21.4011 4.38048 -5.24087
upperneck 27.7211 4.73376 10.249
head 12.2871 2.86818 5.58664
rclavicle 6.95746e-015 -4.77083e-015
rhumerus 45.506 -45.5466 -6.88673
rradius 84.0989
rwrist -15.3635
rhand -24.5059 22.3215
rfingers 7.12502
rthumb 1.98873 -7.64895
lclavicle 6.95746e-015 -4.77083e-015
lhumerus 58.7922 44.9054 18.3186
lradius 81.4116
lwrist -9.73577
lhand -15.6523 41.7785
lfingers 7.12502
lthumb 10.5355 71.4945
rfemur -11.7607 -1.58334 -4.48419
rtibia 61.029
rfoot -28.1543 -7.80803
rtoes -36.4255
lfemur -14.8083 2.10487 11.0938
ltibia 51.6996
lfoot -24.6608 -14.1095
ltoes -36.702
37
root 8.04679 14.6752 -18.7049 -5.18119 -78.5757 2.56121
lowerback 12.7779 1.39399 -2.38954
upperback -3.08638 1.65019 1.86012
thorax -10.6795 1.0133 3.00986
lowerneck -22.5289 4.17149 -5.36381
upperneck 27.322 4.49445 10.4707
head 12.3737 2.80762 5.6883
rclavicle -1.56543e-014 -1.43125e-014
rhumerus 46.2486 -46.2865 -6.70683
rradius 85.9337
rwrist -13.8106
rhand -25.991 27.5879
rfingers 7.12502
rthumb 0.554396 -2.39111
lclavicle -1.56543e-014 -1.43125e-014
lhumerus 59.3571 45.5097 18.2612
lradius 84.1086
lwrist -11.0841
lhand -18.3302 40.217
lfingers 7.12502
lthumb 7.95166 70.0475
rfemur -12.2029 -1.89012 -5.25346
rtibia 62.9606
rfoot -29.1875 -8.0012
rtoes -36.2752
lfemur -15.1676 2.35535 11.177
ltibia 53.4869
lfoot -25.7514 -15.1298
ltoes -34.8968
38
root 8.07965 14.5351 -18.7106 -7.66551 -78.4907 4.65963
lowerback 13.4379 1.26615 -3.09277
upperback -2.65066 1.34933 1.91389
thorax -10.5818 0.908601 3.53013
lowerneck -23.2795 4.23353 -5.4352
upperneck 27.2296 4.72673 10.2626
head 12.4686 2.89059 5.68481
rclavicle -2.85753e-015 3.57812e-015
rhumerus 47.4553 -46.8679 -7.05712
rradius 87.5968
rwrist -12.4247
rhand -28.236 33.8828
rfingers 7.12502
rthumb -1.61386 3.90921
lclavicle -2.85753e-015 3.57812e-015
lhumerus 58.8034 46.19 17.241
lradius 86.3367
lwrist -11.9674
lhand -21.7802 37.7162
lfingers 7.12502
lthumb 4.62104 67.6458
rfemur -12.7984 -2.21582 -6.05619
rtibia 64.8541
rfoot -29.9058 -8.42166
rtoes -37.0205
lfemur -15.6911 2.49219 11.0345
ltibia 55.0473
lfoot -27.2776 -14.7382
ltoes -36.2212
39
root 8.11405 14.407 -18.7211 -8.69895 -78.4853 5.50859
lowerback 13.7079 0.733916 -3.69519
upperback -2.22476 0.56026 2.30955
thorax -10.2109 0.565924 4.48272
lowerneck -24.5737 4.99664 -5.40585
upperneck 27.8166 6.04918 9.69116
head 12.8486 3.40562 5.76621
rclavicle -3.32219e-014 -1.35174e-014
rhumerus 50.8038 -46.5929 -10.2383
rradius 89.3653
rwrist -9.77851
rhand -38.1586 34.1783
rfingers 7.12502
rthumb -11.1922 4.49682
lclavicle -3.32219e-014 -1.35174e-014
lhumerus 55.9255 47.1954 14.4275
lradius 88.3575
lwrist -12.7446
lhand -25.3213 35.7501
lfingers 7.12502
lthumb 1.20125 65.7265
rfemur -13.6379 -2.16578 -6.4987
rtibia 66.6507
rfoot -30.5514 -8.15272
rtoes -37.0669
lfemur -16.3591 2.75752 11.167
ltibia 56.364
lfoot -28.4023 -14.8037
ltoes -36.2602
40
root 8.14039 14.2977 -18.7266 -10.3059 -78.5564 7.00776
lowerback 13.8371 1.3276 -3.44915
upperback -2.08415 1.30443 1.36513
thorax -10.1751 0.87148 3.14123
lowerneck -23.6591 4.60638 -4.23281
upperneck 26.5341 4.95888 9.90825
head 12.3033 3.09129 5.3533
rclavicle 1.11444e-014 1.03368e-014
rhumerus 46.0312 -46.958 -7.90381
rradius 91.9001
rwrist -7.58169
rhand -40.4203 38.5504
rfingers 7.12502
rthumb -13.3729 8.99955
lclavicle 1.11444e-014 1.03368e-014
lhumerus 59.0644 46.3821 16.2869
lradius 89.9724
lwrist -14.3011
lhand -28.5294 35.2548
lfingers 7.12502
lthumb -1.89723 65.2261
rfemur -14.4539 -1.98192 -7.10996
rtibia 68.1992
rfoot -30.9654 -7.36587
rtoes -36.5563
lfemur -16.7661 2.82952 11.1164
ltibia 57.33
lfoot -29.0408 -15.3909
ltoes -34.9536
41
root 8.15852 14.2168 -18.7268 -11.8569 -78.4624 8.47648
lowerback 13.9127 1.42764 -3.46851
upperback -2.02395 1.4007 1.04188
thorax -10.1513 0.905744 2.77817
lowerneck -22.7593 4.60869 -3.97557
upperneck 25.5861 4.9187 9.8158
head 11.7724 3.09034 5.16331
rclavicle -1.39025e-014 -2.78299e-015
rhumerus 46.6521 -47.2434 -6.57382
rradius 90.6911
rwrist -6.24621
rhand -42.8232 41.628
rfingers 7.12502
rthumb -15.6881 12.2439
lclavicle -1.39025e-014 -2.78299e-015
lhumerus 59.6893 46.0945 16.4874
lradius 90.8284
lwrist -16.7503
lhand -30.7951 36.3595
lfingers 7.12502
lthumb -4.08525 66.3001
rfemur -15.0508 -1.85219 -7.69804
rtibia 69.4293
rfoot -30.8759 -6.99496
rtoes -36.6345
lfemur -17.0924 2.5964 10.9168
ltibia 58.0228
lfoot -29.8781 -15.0367
ltoes -35.7415
42
root 8.16304 14.18 -18.7244 -11.5661 -78.4077 7.99597
lowerback 13.926 0.984455 -3.62611
upperback -1.96333 0.820312 1.45392
thorax -10.0567 0.648545 3.4479
lowerneck -21.663 5.07877 -4.20499
upperneck 24.8659 5.88939 9.12655
head 11.2117 3.41619 4.98195
rclavicle -5.01931e-014 -7.95139e-015
rhumerus 48.5867 -46.5947 -8.34483
rradius 91.0436
rwrist -4.86483
rhand -44.5546 43.3079
rfingers 7.12502
rthumb -17.3551 14.0628
lclavicle -5.01931e-014 -7.95139e-015
lhumerus 57.5053 46.3465 14.8548
lradius 91.0856
lwrist -19.6778
lhand -31.1015 38.182
lfingers 7.12502
lthumb -4.38111 68.1167
rfemur -15.2236 -1.44187 -7.68149
rtibia 70.1538
rfoot -30.6653 -6.98207
rtoes -36.7158
lfemur -17.1223 2.30997 11.0238
ltibia 58.4027
lfoot -30.8528 -13.9599
ltoes -37.3806
43
root 8.16464 14.1441 -18.7232 -11.3268 -78.5263 7.38597
lowerback 14.1093 0.645516 -3.85538
upperback -1.51771 0.358327 1.86828
thorax -9.63566 0.433644 4.1317
lowerneck -22.2846 5.3744 -4.4146
upperneck 24.5337 6.62327 8.47038
head 11.1622 3.66067 4.8864
rclavicle -4.06266e-015 -3.97569e-015
rhumerus 50.756 -46.6397 -10.2156
rradius 90.6824
rwrist -4.58515
rhand -45.9412 43.0616
rfingers 7.12502
rthumb -18.6891 13.9394
lclavicle -4.06266e-015 -3.97569e-015
lhumerus 55.7763 46.999 13.9785
lradius 90.8436
lwrist -22.3768
lhand -30.101 39.491
lfingers 7.12502
lthumb -3.415 69.4434
rfemur -15.1703 -0.851595 -7.59624
rtibia 70.5876
rfoot -30.5224 -6.89585
rtoes -36.9758
lfemur -16.7709 2.00937 11.1686
ltibia 58.6049
lfoot -31.4395 -13.2585
ltoes -37.5372
44
root 8.16141 14.1335 -18.7206 -10.8048 -78.5792 6.59676
lowerback 14.2421 0.493826 -3.90647
upperback -1.3533 0.159273 2.0737
thorax -9.51248 0.339572 4.42896
lowerneck -21.5857 5.43919 -4.70326
upperneck 23.7566 6.92047 8.11978
head 10.7188 3.73573 4.76519
rclavicle -2.28727e-014 0
rhumerus 51.536 -46.4391 -11.0672
rradius 89.8585
rwrist -5.10503
rhand -46.5683 41.4597
rfingers 7.12502
rthumb -19.2922 12.3966
lclavicle -2.28727e-014 0
lhumerus 54.6901 46.8868 13.6877
lradius 90.1279
lwrist -23.6966
lhand -29.2413 40.6203
lfingers 7.12502
lthumb -2.58479 70.5843
rfemur -15.0415 -0.454695 -7.44798
rtibia 70.7281
rfoot -30.3816 -6.6823
rtoes -37.076
lfemur -16.4132 1.67475 11.2556
ltibia 58.5608
lfoot -31.4833 -13.0879
ltoes -36.5748
45
root 8.15618 14.1409 -18.7153 -8.91369 -78.4214 4.67047
lowerback 14.0152 0.285839 -3.67803
upperback -1.27498 -0.0540388 2.28705
thorax -9.27227 0.222461 4.57293
lowerneck -20.8552 5.47775 -4.53448
upperneck 23.0201 7.0968 7.44089
head 10.3376 3.75494 4.44199
rclavicle 3.34455e-014 2.06736e-014
rhumerus 52.0993 -46.2327 -12.0391
rradius 88.5997
rwrist -5.6729
rhand -45.4223 40.1893
rfingers 7.12502
rthumb -18.1899 11.0198
lclavicle 3.34455e-014 2.06736e-014
lhumerus 53.2037 46.6147 12.9548
lradius 89.1948
lwrist -23.2214
lhand -28.6517 41.3799
lfingers 7.12502
lthumb -2.01535 71.3501
rfemur -14.9172 -0.338072 -7.02275
rtibia 70.6874
rfoot -30.3948 -6.48453
rtoes -36.5789
lfemur -16.3295 1.364 11.5157
ltibia 58.328
lfoot -31.2997 -13.1748
ltoes -35.1833
